# Blender v2.79 (sub 0) OBJ File: 'cube.blend'
# www.blender.org
mtllib cube.mtl
o Cube_Cube.001
v 0.123143 -2.395701 1.863651
v 0.123143 -0.395701 1.863651
v 0.123143 -2.395701 -0.136349
v 0.123143 -0.395701 -0.136349
v 2.123143 -2.395701 1.863651
v 2.123143 -0.395701 1.863651
v 2.123143 -2.395701 -0.136349
v 2.123143 -0.395701 -0.136349
vt 0.000000 0.666667
vt 0.333333 0.333333
vt 0.333333 0.666667
vt 0.333333 0.000000
vt 0.666667 0.333333
vt 0.666667 0.666667
vt 0.333333 0.333333
vt 0.000000 0.000000
vt 0.333333 0.333333
vt 0.000000 0.333333
vt 0.666667 0.000000
vt 1.000000 0.333333
vt 0.666667 0.333333
vt 0.000000 1.000000
vt 0.333333 0.666667
vt 0.333333 1.000000
vt 0.000000 0.333333
vt 0.666667 0.000000
vt 0.333333 0.000000
vt 1.000000 0.000000
vn -1.0000 0.0000 0.0000
vn 0.0000 0.0000 -1.0000
vn 1.0000 0.0000 0.0000
vn 0.0000 0.0000 1.0000
vn 0.0000 -1.0000 0.0000
vn 0.0000 1.0000 0.0000
usemtl None
s off
f 2/1/1 3/2/1 1/3/1
f 4/4/2 7/5/2 3/2/2
f 8/6/3 5/7/3 7/5/3
f 6/8/4 1/9/4 5/10/4
f 7/11/5 1/12/5 3/13/5
f 4/14/6 6/15/6 8/16/6
f 2/1/1 4/17/1 3/2/1
f 4/4/2 8/18/2 7/5/2
f 8/6/3 6/15/3 5/7/3
f 6/8/4 2/19/4 1/9/4
f 7/11/5 5/20/5 1/12/5
f 4/14/6 2/1/6 6/15/6
